<?xml version="1.0" encoding="utf-8"?>
<svg viewBox="-16.648 0.555 500 500" xmlns="http://www.w3.org/2000/svg">
  <defs>
    <linearGradient gradientUnits="userSpaceOnUse" x1="99.89" y1="35.948" x2="99.89" y2="240.721" id="gradient-1" spreadMethod="repeat" gradientTransform="matrix(2.108271, 0, 0, 1.058321, 26.636061, -13.243124)">
      <stop offset="0" style="stop-color: #bada55"/>
      <stop offset="1" style="stop-color: #758d29"/>
    </linearGradient>
  </defs>
  <rect x="28.976" y="24.801" width="416.508" height="216.715" style="stroke: url(#gradient-1); fill: rgb(48, 192, 220); stroke-width: 0px; stroke-opacity: 0.98; paint-order: fill;"/>
  <rect x="41.747" y="211.23" width="389.325" height="18.408" style="fill: rgb(216, 216, 216); stroke: rgb(0, 0, 0);"/>
  <rect x="347.177" y="139.995" width="65.543" height="70.459" style="fill: rgb(216, 216, 216); stroke: rgb(0, 0, 0);"/>
  <path style="fill: rgb(216, 216, 216); stroke: rgb(0, 0, 0);" d="M 411.409 139.36 C 386.55 91.576 405.177 103.697 254.106 66.995"/>
  <path style="fill: rgb(216, 216, 216); stroke: rgb(0, 0, 0);" d="M 345.865 139.995 C 360.614 111.667 252.461 94.685 255.416 96.832"/>
  <rect x="207.189" y="96.83" width="18.352" height="9.522" style="fill: rgb(216, 216, 216); stroke: rgb(0, 0, 0);"/>
  <rect x="198.79" y="106.985" width="35.392" height="23.486" style="fill: rgb(216, 216, 216); stroke: rgb(0, 0, 0);"/>
  <rect x="243.62" y="66.995" width="10.487" height="29.834" style="fill: rgb(216, 216, 216); stroke: rgb(0, 0, 0);"/>
  <line style="fill: rgb(216, 216, 216); stroke: rgb(0, 0, 0);" x1="244.672" y1="67.504" x2="175.194" y2="40.844"/>
  <path style="fill: rgb(216, 216, 216); stroke: rgb(0, 0, 0);" d="M 175.454 74.473 L 175.454 96.69 L 242.309 96.053"/>
  <line style="fill: rgb(216, 216, 216); stroke: rgb(0, 0, 0);" x1="143.733" y1="62.412" x2="176.506" y2="75.106"/>
  <path style="fill: rgb(216, 216, 216); stroke: rgb(0, 0, 0);" d="M 143.993 62.34 L 146.615 51.549 L 123.02 42.662 L 134.819 35.045 L 161.034 45.201 L 175.454 40.759"/>
  <path d="M 117.603 191.588 L 106.434 191.588 L 106.434 183.113 L 67.178 183.113 L 67.178 191.588 L 56.01 191.588 L 56.01 174.327 C 56.01 171.808 56.783 169.489 58.33 167.371 C 59.875 165.253 62.024 163.431 64.773 161.907 C 67.522 160.382 70.771 159.194 74.522 158.344 C 78.273 157.492 82.367 157.067 86.806 157.067 L 111.976 157.067 C 112.749 157.067 113.479 157.147 114.165 157.309 C 114.853 157.469 115.454 157.694 115.971 157.982 C 116.486 158.271 116.887 158.609 117.173 158.994 C 117.459 159.379 117.603 159.788 117.603 160.222 L 117.603 191.588 Z M 67.178 176.855 L 106.434 176.855 L 106.434 163.327 L 86.806 163.327 C 86.463 163.327 85.739 163.354 84.638 163.411 C 83.535 163.467 82.26 163.607 80.814 163.833 C 79.369 164.057 77.844 164.402 76.24 164.867 C 74.637 165.333 73.162 165.975 71.816 166.793 C 70.471 167.611 69.361 168.635 68.488 169.862 C 67.613 171.09 67.178 172.579 67.178 174.327 L 67.178 176.855 Z M 192.088 168.671 C 192.088 170.099 191.773 171.374 191.143 172.499 C 190.513 173.622 189.66 174.613 188.587 175.471 C 187.514 176.33 186.275 177.064 184.873 177.674 C 183.47 178.284 182.002 178.786 180.469 179.178 C 178.938 179.571 177.391 179.857 175.831 180.033 C 174.27 180.21 172.803 180.298 171.429 180.298 L 194.752 191.588 L 177.484 191.588 L 154.205 180.298 L 146.173 180.298 L 146.173 174.039 L 171.429 174.039 C 172.831 173.976 174.112 173.81 175.273 173.545 C 176.433 173.28 177.434 172.924 178.279 172.474 C 179.124 172.024 179.776 171.483 180.234 170.85 C 180.691 170.215 180.921 169.489 180.921 168.671 L 180.921 164.723 C 180.921 164.37 180.842 164.101 180.685 163.916 C 180.528 163.732 180.326 163.596 180.084 163.507 C 179.839 163.419 179.582 163.367 179.31 163.351 C 179.038 163.335 178.787 163.327 178.559 163.327 L 141.707 163.327 L 141.707 191.588 L 130.539 191.588 L 130.539 160.222 C 130.539 159.788 130.683 159.379 130.969 158.994 C 131.255 158.609 131.648 158.271 132.15 157.982 C 132.651 157.694 133.244 157.469 133.932 157.309 C 134.619 157.147 135.364 157.067 136.165 157.067 L 178.559 157.067 C 181.05 157.067 183.154 157.32 184.873 157.826 C 186.59 158.331 187.986 158.966 189.059 159.728 C 190.133 160.489 190.906 161.313 191.38 162.195 C 191.851 163.078 192.088 163.903 192.088 164.675 L 192.088 168.671 Z M 264.669 171.511 C 264.669 172.941 264.357 174.216 263.726 175.339 C 263.096 176.462 262.245 177.453 261.169 178.311 C 260.096 179.171 258.858 179.905 257.455 180.515 C 256.052 181.125 254.584 181.622 253.052 182.007 C 251.52 182.393 249.974 182.673 248.414 182.85 C 246.852 183.025 245.385 183.113 244.01 183.113 L 218.757 183.113 L 218.757 176.855 L 244.01 176.855 C 245.443 176.791 246.739 176.626 247.898 176.363 C 249.058 176.098 250.053 175.74 250.883 175.291 C 251.714 174.841 252.357 174.3 252.815 173.666 C 253.274 173.032 253.503 172.314 253.503 171.511 L 253.503 168.671 C 253.36 167.885 253.06 167.161 252.602 166.503 C 252.142 165.846 251.52 165.285 250.732 164.82 C 249.945 164.353 248.993 163.989 247.876 163.724 C 246.761 163.459 245.471 163.327 244.01 163.327 L 218.842 163.327 C 217.353 163.327 216.222 163.543 215.448 163.977 C 214.677 164.41 214.289 165.036 214.289 165.855 L 214.289 191.588 L 203.121 191.588 L 203.121 165.855 C 203.121 164.248 203.645 162.885 204.69 161.762 C 205.735 160.638 207.038 159.732 208.598 159.042 C 210.158 158.352 211.856 157.85 213.687 157.538 C 215.52 157.225 217.209 157.067 218.757 157.067 L 244.01 157.067 C 246.531 157.067 248.794 157.248 250.798 157.61 C 252.801 157.971 254.569 158.451 256.102 159.054 C 257.633 159.655 258.936 160.35 260.01 161.135 C 261.085 161.923 261.972 162.746 262.673 163.604 C 263.374 164.462 263.884 165.329 264.198 166.204 C 264.513 167.079 264.669 167.901 264.669 168.671 L 264.669 171.511 Z M 324.845 177.482 L 289.581 177.482 L 289.581 171.174 L 324.845 171.174 L 324.845 177.482 Z M 329.869 191.588 L 289.581 191.588 C 288.036 191.588 286.346 191.436 284.515 191.131 C 282.68 190.826 280.984 190.324 279.424 189.627 C 277.864 188.929 276.561 188.022 275.515 186.906 C 274.47 185.791 273.947 184.422 273.947 182.802 L 273.947 160.222 C 273.947 159.788 274.091 159.379 274.377 158.994 C 274.664 158.609 275.057 158.271 275.558 157.982 C 276.06 157.694 276.654 157.469 277.341 157.309 C 278.028 157.147 278.773 157.067 279.574 157.067 L 329.869 157.067 L 329.869 163.327 L 285.116 163.327 L 285.116 182.802 C 285.116 183.62 285.501 184.246 286.275 184.68 C 287.047 185.113 288.179 185.33 289.668 185.33 L 329.869 185.33 L 329.869 191.588 Z" style="fill: rgb(51, 51, 51); white-space: pre;"/>
</svg>