<?xml version="1.0" encoding="utf-8"?>
<svg viewBox="-16.648 0.555 500 500" xmlns="http://www.w3.org/2000/svg">
  <defs>
    <linearGradient gradientUnits="userSpaceOnUse" x1="99.89" y1="35.948" x2="99.89" y2="240.721" id="gradient-1" spreadMethod="repeat" gradientTransform="matrix(2.378286, 0, 0, 2.29085, -1.529898, -67.900298)">
      <stop offset="0" style="stop-color: #bada55"/>
      <stop offset="1" style="stop-color: #758d29"/>
    </linearGradient>
  </defs>
  <rect x="1.11" y="14.451" width="469.852" height="469.104" style="stroke: url(#gradient-1); fill: rgb(48, 192, 220); stroke-width: 0px; stroke-opacity: 0.98; paint-order: fill;"/>
  <rect x="42.024" y="408.548" width="391.982" height="36.866" style="fill: rgb(216, 216, 216); stroke: rgb(0, 0, 0);"/>
  <rect x="349.539" y="265.881" width="65.99" height="141.111" style="fill: rgb(216, 216, 216); stroke: rgb(0, 0, 0);"/>
  <path style="fill: rgb(216, 216, 216); stroke: rgb(0, 0, 0);" d="M 414.209 264.61 C 389.18 168.912 407.935 193.188 255.833 119.683"/>
  <path style="fill: rgb(216, 216, 216); stroke: rgb(0, 0, 0);" d="M 348.218 265.881 C 363.067 209.151 254.176 175.139 257.151 179.437"/>
  <rect x="208.595" y="179.434" width="18.477" height="19.069" style="fill: rgb(216, 216, 216); stroke: rgb(0, 0, 0);"/>
  <rect x="200.139" y="199.774" width="35.634" height="47.038" style="fill: rgb(216, 216, 216); stroke: rgb(0, 0, 0);"/>
  <rect x="245.275" y="119.683" width="10.559" height="59.75" style="fill: rgb(216, 216, 216); stroke: rgb(0, 0, 0);"/>
  <line style="fill: rgb(216, 216, 216); stroke: rgb(0, 0, 0);" x1="246.334" y1="120.703" x2="176.382" y2="67.309"/>
  <path style="fill: rgb(216, 216, 216); stroke: rgb(0, 0, 0);" d="M 176.644 134.658 L 176.644 179.152 L 243.955 177.88"/>
  <line style="fill: rgb(216, 216, 216); stroke: rgb(0, 0, 0);" x1="144.706" y1="110.505" x2="177.703" y2="135.928"/>
  <path style="fill: rgb(216, 216, 216); stroke: rgb(0, 0, 0);" d="M 144.968 110.361 L 147.608 88.75 L 123.852 70.952 L 135.731 55.695 L 162.125 76.036 L 176.644 67.139"/>
  <path d="M 118.398 369.21 L 107.153 369.21 L 107.153 352.239 L 67.629 352.239 L 67.629 369.21 L 56.385 369.21 L 56.385 334.642 C 56.385 329.596 57.163 324.952 58.72 320.71 C 60.276 316.467 62.44 312.819 65.207 309.766 C 67.975 306.712 71.246 304.334 75.023 302.63 C 78.8 300.926 82.922 300.075 87.391 300.075 L 112.733 300.075 C 113.511 300.075 114.246 300.235 114.937 300.557 C 115.629 300.879 116.234 301.328 116.755 301.907 C 117.273 302.485 117.677 303.16 117.965 303.933 C 118.253 304.703 118.398 305.524 118.398 306.391 L 118.398 369.21 Z M 67.629 339.705 L 107.153 339.705 L 107.153 312.609 L 87.391 312.609 C 87.045 312.609 86.317 312.666 85.208 312.779 C 84.097 312.891 82.814 313.172 81.358 313.623 C 79.903 314.072 78.368 314.763 76.753 315.695 C 75.139 316.627 73.654 317.912 72.299 319.553 C 70.944 321.192 69.827 323.241 68.948 325.699 C 68.067 328.158 67.629 331.14 67.629 334.642 L 67.629 339.705 Z M 193.391 323.313 C 193.391 326.173 193.074 328.728 192.44 330.979 C 191.806 333.228 190.947 335.213 189.866 336.933 C 188.786 338.652 187.539 340.122 186.127 341.343 C 184.714 342.566 183.236 343.57 181.693 344.357 C 180.152 345.144 178.594 345.715 177.023 346.069 C 175.452 346.422 173.975 346.599 172.591 346.599 L 196.073 369.21 L 178.688 369.21 L 155.25 346.599 L 147.163 346.599 L 147.163 334.065 L 172.591 334.065 C 174.003 333.936 175.293 333.606 176.462 333.075 C 177.629 332.545 178.637 331.83 179.488 330.93 C 180.339 330.03 180.995 328.945 181.456 327.676 C 181.917 326.407 182.148 324.952 182.148 323.313 L 182.148 315.407 C 182.148 314.699 182.069 314.16 181.91 313.79 C 181.752 313.422 181.549 313.148 181.305 312.972 C 181.059 312.795 180.8 312.69 180.526 312.659 C 180.252 312.626 180 312.609 179.77 312.609 L 142.666 312.609 L 142.666 369.21 L 131.422 369.21 L 131.422 306.391 C 131.422 305.524 131.567 304.703 131.855 303.933 C 132.143 303.16 132.539 302.485 133.044 301.907 C 133.549 301.328 134.146 300.879 134.838 300.557 C 135.53 300.235 136.28 300.075 137.087 300.075 L 179.77 300.075 C 182.278 300.075 184.396 300.581 186.127 301.594 C 187.856 302.606 189.261 303.876 190.342 305.402 C 191.423 306.929 192.201 308.577 192.678 310.344 C 193.153 312.112 193.391 313.766 193.391 315.31 L 193.391 323.313 Z M 266.468 329.002 C 266.468 331.863 266.153 334.418 265.518 336.667 C 264.884 338.917 264.027 340.902 262.944 342.621 C 261.863 344.341 260.617 345.812 259.204 347.033 C 257.792 348.254 256.314 349.25 254.771 350.022 C 253.229 350.794 251.672 351.356 250.102 351.709 C 248.529 352.062 247.052 352.239 245.668 352.239 L 220.242 352.239 L 220.242 339.705 L 245.668 339.705 C 247.11 339.576 248.415 339.247 249.582 338.717 C 250.75 338.186 251.752 337.471 252.588 336.57 C 253.424 335.671 254.072 334.585 254.533 333.317 C 254.995 332.047 255.225 330.609 255.225 329.002 L 255.225 323.313 C 255.081 321.738 254.779 320.291 254.318 318.973 C 253.855 317.656 253.229 316.531 252.436 315.599 C 251.643 314.667 250.685 313.936 249.56 313.406 C 248.437 312.876 247.139 312.609 245.668 312.609 L 220.328 312.609 C 218.829 312.609 217.69 313.043 216.911 313.912 C 216.134 314.78 215.744 316.033 215.744 317.672 L 215.744 369.21 L 204.5 369.21 L 204.5 317.672 C 204.5 314.457 205.027 311.726 206.079 309.477 C 207.131 307.226 208.443 305.41 210.014 304.028 C 211.585 302.646 213.294 301.642 215.138 301.015 C 216.983 300.388 218.684 300.075 220.242 300.075 L 245.668 300.075 C 248.206 300.075 250.484 300.435 252.502 301.16 C 254.519 301.883 256.299 302.847 257.842 304.053 C 259.384 305.257 260.696 306.648 261.777 308.222 C 262.859 309.798 263.752 311.445 264.458 313.165 C 265.164 314.884 265.677 316.62 265.993 318.371 C 266.311 320.123 266.468 321.77 266.468 323.313 L 266.468 329.002 Z M 327.054 340.958 L 291.55 340.958 L 291.55 328.328 L 327.054 328.328 L 327.054 340.958 Z M 332.113 369.21 L 291.55 369.21 C 289.994 369.21 288.293 368.905 286.449 368.294 C 284.602 367.684 282.894 366.678 281.323 365.281 C 279.753 363.883 278.441 362.067 277.388 359.833 C 276.336 357.599 275.809 354.859 275.809 351.613 L 275.809 306.391 C 275.809 305.524 275.954 304.703 276.242 303.933 C 276.531 303.16 276.927 302.485 277.431 301.907 C 277.936 301.328 278.534 300.879 279.226 300.557 C 279.918 300.235 280.668 300.075 281.474 300.075 L 332.113 300.075 L 332.113 312.609 L 287.054 312.609 L 287.054 351.613 C 287.054 353.252 287.442 354.506 288.221 355.374 C 288.998 356.241 290.138 356.675 291.637 356.675 L 332.113 356.675 L 332.113 369.21 Z" style="fill: rgb(51, 51, 51); white-space: pre;"/>
</svg>